<svg id="visual" viewBox="0 0 900 600" width="900" height="600" xmlns="http://www.w3.org/2000/svg" xmlns:xlink="http://www.w3.org/1999/xlink" version="1.1"><rect x="0" y="0" width="900" height="600" fill="#f4f4f4"></rect><path d="M0 156L18.8 151.5C37.7 147 75.3 138 112.8 132.3C150.3 126.7 187.7 124.3 225.2 128.2C262.7 132 300.3 142 337.8 141.2C375.3 140.3 412.7 128.7 450.2 122.8C487.7 117 525.3 117 562.8 120.7C600.3 124.3 637.7 131.7 675.2 136.2C712.7 140.7 750.3 142.3 787.8 144.5C825.3 146.7 862.7 149.3 881.3 150.7L900 152L900 0L881.3 0C862.7 0 825.3 0 787.8 0C750.3 0 712.7 0 675.2 0C637.7 0 600.3 0 562.8 0C525.3 0 487.7 0 450.2 0C412.7 0 375.3 0 337.8 0C300.3 0 262.7 0 225.2 0C187.7 0 150.3 0 112.8 0C75.3 0 37.7 0 18.8 0L0 0Z" fill="#0000ab"></path><path d="M0 94L18.8 91.5C37.7 89 75.3 84 112.8 82.7C150.3 81.3 187.7 83.7 225.2 86.2C262.7 88.7 300.3 91.3 337.8 94.3C375.3 97.3 412.7 100.7 450.2 103.2C487.7 105.7 525.3 107.3 562.8 103.3C600.3 99.3 637.7 89.7 675.2 83C712.7 76.3 750.3 72.7 787.8 73.8C825.3 75 862.7 81 881.3 84L900 87L900 0L881.3 0C862.7 0 825.3 0 787.8 0C750.3 0 712.7 0 675.2 0C637.7 0 600.3 0 562.8 0C525.3 0 487.7 0 450.2 0C412.7 0 375.3 0 337.8 0C300.3 0 262.7 0 225.2 0C187.7 0 150.3 0 112.8 0C75.3 0 37.7 0 18.8 0L0 0Z" fill="#000081"></path><path d="M0 65L18.8 59.3C37.7 53.7 75.3 42.3 112.8 41.2C150.3 40 187.7 49 225.2 51.3C262.7 53.7 300.3 49.3 337.8 49.3C375.3 49.3 412.7 53.7 450.2 56.7C487.7 59.7 525.3 61.3 562.8 58.3C600.3 55.3 637.7 47.7 675.2 46C712.7 44.3 750.3 48.7 787.8 52.8C825.3 57 862.7 61 881.3 63L900 65L900 0L881.3 0C862.7 0 825.3 0 787.8 0C750.3 0 712.7 0 675.2 0C637.7 0 600.3 0 562.8 0C525.3 0 487.7 0 450.2 0C412.7 0 375.3 0 337.8 0C300.3 0 262.7 0 225.2 0C187.7 0 150.3 0 112.8 0C75.3 0 37.7 0 18.8 0L0 0Z" fill="#00005a"></path></svg>